<svg xmlns="http://www.w3.org/2000/svg" width="24" height="24" viewBox="0 0 24 24">
  <g id="Group_161852" data-name="Group 161852" transform="translate(-69 -621)">
    <path id="receipt" d="M9,12H7a1,1,0,0,0,0,2H9a1,1,0,0,0,0-2ZM8,10h4a1,1,0,0,0,0-2H8a1,1,0,0,0,0,2Zm1,6H7a1,1,0,0,0,0,2H9a1,1,0,0,0,0-2Zm12-4H18V3a1,1,0,0,0-1.5-.87l-3,1.72-3-1.72a1,1,0,0,0-1,0l-3,1.72-3-1.72A1,1,0,0,0,2,3V19a3,3,0,0,0,3,3H19a3,3,0,0,0,3-3V13A1,1,0,0,0,21,12ZM5,20a1,1,0,0,1-1-1V4.73L6,5.87a1.08,1.08,0,0,0,1,0l3-1.72,3,1.72a1.08,1.08,0,0,0,1,0l2-1.14V19a3,3,0,0,0,.18,1Zm15-1a1,1,0,0,1-2,0V14h2Zm-6.44-2.83a.76.76,0,0,0-.18-.09.6.6,0,0,0-.19-.06,1,1,0,0,0-.9.27A1.05,1.05,0,0,0,12,17a1,1,0,0,0,.07.38,1.19,1.19,0,0,0,.22.33,1.15,1.15,0,0,0,.33.21.94.94,0,0,0,.76,0,1.15,1.15,0,0,0,.33-.21A1,1,0,0,0,14,17a1.05,1.05,0,0,0-.29-.71,1.58,1.58,0,0,0-.15-.12Zm.14-3.88a1.038,1.038,0,1,0,.22.33.91.91,0,0,0-.22-.33Z" transform="translate(69 621.002)" fill="#043957"/>
    <rect id="Rectangle_16936" data-name="Rectangle 16936" width="24" height="24" transform="translate(69 621)" fill="none"/>
  </g>
</svg>
