<svg id="Layer_2" data-name="Layer 2" xmlns="http://www.w3.org/2000/svg" width="36" height="36" viewBox="0 0 36 36">
  <g id="Layer_5" data-name="Layer 5">
    <rect id="Rectangle_1548" data-name="Rectangle 1548" width="36" height="36" fill="none"/>
    <path id="Path_8169" data-name="Path 8169" d="M8,8A12.75,12.75,0,1,1,8,26,12.75,12.75,0,0,1,8,8m-1.6-1.605a15,15,0,1,0,21.21,0,15,15,0,0,0-21.21,0Z" transform="translate(1 1.001)" fill="#403362"/>
    <path id="Path_8170" data-name="Path 8170" d="M21.845,13.625A1.125,1.125,0,0,1,22.97,14.75a1.065,1.065,0,0,1-.33.795,1.125,1.125,0,0,1-.795.33h-6v6a1.125,1.125,0,1,1-2.25,0v-6h-6a1.125,1.125,0,1,1,0-2.25h6v-6a1.125,1.125,0,1,1,2.25,0v6Z" transform="translate(3.235 3.25)" fill="#403362"/>
  </g>
</svg>
