<svg xmlns="http://www.w3.org/2000/svg" width="24" height="24" viewBox="0 0 24 24">
  <g id="Group_161824" data-name="Group 161824" transform="translate(-320 -386)">
    <rect id="Rectangle_16988" data-name="Rectangle 16988" width="24" height="24" transform="translate(320 386)" fill="none"/>
    <path id="money-stack" d="M20.091,15.545H1.909a.909.909,0,0,0,0,1.818H20.091a.909.909,0,0,0,0-1.818Zm0,3.636H1.909a.909.909,0,0,0,0,1.818H20.091a.909.909,0,0,0,0-1.818ZM5.545,6.455a.909.909,0,1,0,.909.909A.909.909,0,0,0,5.545,6.455ZM18.273,1H3.727A2.727,2.727,0,0,0,1,3.727V11a2.727,2.727,0,0,0,2.727,2.727H18.273A2.727,2.727,0,0,0,21,11V3.727A2.727,2.727,0,0,0,18.273,1Zm.909,10a.909.909,0,0,1-.909.909H3.727A.909.909,0,0,1,2.818,11V3.727a.909.909,0,0,1,.909-.909H18.273a.909.909,0,0,1,.909.909ZM11,4.636a2.727,2.727,0,1,0,2.727,2.727A2.727,2.727,0,0,0,11,4.636Zm0,3.636a.909.909,0,1,1,.909-.909A.909.909,0,0,1,11,8.273Zm5.455-1.818a.909.909,0,1,0,.909.909A.909.909,0,0,0,16.455,6.455Z" transform="translate(321 387)" fill="#043957"/>
  </g>
</svg>
