<svg xmlns="http://www.w3.org/2000/svg" width="16" height="16" viewBox="0 0 16 16">
  <g id="Group_5101" data-name="Group 5101" transform="translate(-296 -398)">
    <path id="Ellipse_404" data-name="Ellipse 404" d="M8,1a7,7,0,1,0,7,7A7.008,7.008,0,0,0,8,1M8,0A8,8,0,1,1,0,8,8,8,0,0,1,8,0Z" transform="translate(296 398)" fill="#2fbc9e"/>
    <circle id="Ellipse_405" data-name="Ellipse 405" cx="5" cy="5" r="5" transform="translate(299 401)" fill="#2fbc9e"/>
    <path id="Ellipse_405_-_Outline" data-name="Ellipse 405 - Outline" d="M5,1A4,4,0,1,0,9,5,4,4,0,0,0,5,1M5,0A5,5,0,1,1,0,5,5,5,0,0,1,5,0Z" transform="translate(299 401)" fill="#2fbc9e"/>
  </g>
</svg>
