<svg xmlns="http://www.w3.org/2000/svg" xmlns:xlink="http://www.w3.org/1999/xlink" width="82.833" height="50.08" viewBox="0 0 82.833 50.08">
  <defs>
    <linearGradient id="linear-gradient" x1="0.5" x2="0.5" y2="1" gradientUnits="objectBoundingBox">
      <stop offset="0" stop-color="#5087e5"/>
      <stop offset="1" stop-color="#2d4ab1"/>
    </linearGradient>
  </defs>
  <g id="Group_161789" data-name="Group 161789" transform="translate(-60 -368.42)">
    <g id="Group_161787" data-name="Group 161787" transform="translate(-2900 -1202)">
      <line id="Line_1" data-name="Line 1" x2="81.833" transform="translate(2960.5 1620)" fill="none" stroke="#3c64c8" stroke-linecap="round" stroke-width="1"/>
      <line id="Line_2" data-name="Line 2" x2="81.833" transform="translate(2960.5 1601.034)" fill="none" stroke="#3c64c8" stroke-linecap="round" stroke-width="1"/>
      <line id="Line_3" data-name="Line 3" x2="8" transform="translate(2960.5 1610.968)" fill="none" stroke="#3c64c8" stroke-linecap="round" stroke-width="1"/>
      <path id="Path_83259" data-name="Path 83259" d="M8,0" transform="translate(2976.5 1610.968)" fill="none" stroke="#3c64c8" stroke-linecap="round" stroke-width="1"/>
      <line id="Line_5" data-name="Line 5" x2="8" transform="translate(2992.5 1610.968)" fill="none" stroke="#3c64c8" stroke-linecap="round" stroke-width="1"/>
      <line id="Line_7" data-name="Line 7" x2="8" transform="translate(3024.5 1610.968)" fill="none" stroke="#3c64c8" stroke-linecap="round" stroke-width="1"/>
    </g>
    <g id="Group_161788" data-name="Group 161788" transform="translate(-1169.259 -941.269)">
      <g id="Group_161782" data-name="Group 161782" transform="translate(1246.05 1327.28)">
        <path id="Path_83254" data-name="Path 83254" d="M1629.385,1570.552c-1.905,0-3.449,2.148-3.449,4.8s1.544,4.8,3.449,4.8,3.449-2.148,3.449-4.8S1631.291,1570.552,1629.385,1570.552Zm0,6.561c-.7,0-1.269-.792-1.269-1.765s.569-1.765,1.269-1.765,1.269.792,1.269,1.765S1630.085,1577.113,1629.385,1577.113Z" transform="translate(-1591.595 -1553.804)" fill="url(#linear-gradient)"/>
        <path id="Path_83255" data-name="Path 83255" d="M1343.067,1570.552c-1.9,0-3.449,2.148-3.449,4.8s1.544,4.8,3.449,4.8,3.449-2.148,3.449-4.8S1344.972,1570.552,1343.067,1570.552Zm0,6.561c-.7,0-1.269-.792-1.269-1.765s.569-1.765,1.269-1.765,1.269.792,1.269,1.765S1343.767,1577.113,1343.067,1577.113Z" transform="translate(-1332.382 -1553.804)" fill="url(#linear-gradient)"/>
        <path id="Path_83256" data-name="Path 83256" d="M1310.477,1454.093c-.3-2.375-5.234-8.121-5.234-8.121l1.26-.568c.5-.226.4-1.251-.124-1.285-5.5-.356-18.119-1.1-21.164-.667-3.189.455-7.174,6.081-10.878,8.1l-8.435-6.518c-.146-.113-.277.178-.14.312l7.006,6.827a3.722,3.722,0,0,1-.939.095c-4.328-.14-5.536,1.12-7.347,2.239-1.22.754-1.345,5.189-1.3,8.006.022,1.307.789,2.351,1.729,2.351h4.827c0-3.159,1.848-5.729,4.12-5.729s4.12,2.57,4.12,5.729h18.864c0-3.159,1.848-5.729,4.12-5.729s4.12,2.57,4.12,5.729h5.389S1310.779,1456.469,1310.477,1454.093Zm-45.291,5.137c-.444,0-.8-.7-.8-1.573s.359-1.574.8-1.574.8.7.8,1.574S1265.63,1459.23,1265.186,1459.23Zm24.644-7.143c0,.638-.372,1.155-.831,1.155h-1.275c-.459,0-.831-.517-.831-1.155v-.337h2.936Zm1.677-1.357h-11.125a1.289,1.289,0,0,0,.183-.662,1.338,1.338,0,0,0-.776-1.2c1.589-1.722,3.979-4.017,5.425-4.017h6.293Zm13.351,1.357c0,.638-.372,1.155-.831,1.155h-1.275c-.459,0-.831-.517-.831-1.155v-.337h2.936Zm-12.1-1.357v-5.878h9.259l3.925,5.878Z" transform="translate(-1263.177 -1443.321)" fill="url(#linear-gradient)"/>
      </g>
      <path id="Path_83258" data-name="Path 83258" d="M1250.249,1318.988a1.032,1.032,0,0,0,.568.256h0a2.647,2.647,0,0,0,1-2.208,3.228,3.228,0,0,0-.2-1.138.811.811,0,0,1-.371.05,1.01,1.01,0,0,1-.708-.457,1.03,1.03,0,0,0,.568.256.971.971,0,0,0,.687-.2,4.99,4.99,0,0,0,.406-2c0-2.125-1.239-3.848-2.767-3.848s-2.767,1.723-2.767,3.848c0,.03,0,.059,0,.089a.944.944,0,0,0,1.063-.01,1.265,1.265,0,0,1-.112.112.846.846,0,0,1-1.091.068,2.664,2.664,0,0,0-.974,2.19c0,.034,0,.067,0,.1a2.479,2.479,0,0,0-1.262,2.348,3.067,3.067,0,0,0,.406,1.564.939.939,0,0,0,.975-.061,1.2,1.2,0,0,1-.112.112.851.851,0,0,1-.817.2,3.01,3.01,0,0,0-.481,1.681,3.368,3.368,0,0,1,0,1.679,2.483,2.483,0,0,0,1.256,2.346,2.708,2.708,0,0,1-.109.313,2.621,2.621,0,0,0,.879,3.358c-.425-2.062,1.975-2.9,2.129-3.866a.819.819,0,0,1-.117,0,1.01,1.01,0,0,1-.708-.457,1.033,1.033,0,0,0,.568.256.926.926,0,0,0,.463-.073,2.7,2.7,0,0,0,.923-2.153,3.308,3.308,0,0,0-.1-.806,2.4,2.4,0,0,0,1.388-2.393,3.338,3.338,0,0,0-.081-.737A1.1,1.1,0,0,1,1250.249,1318.988Zm-4.768,3.523a2.166,2.166,0,0,0-.463,2.234,1.647,1.647,0,0,1-.081-.156,1.924,1.924,0,0,1,.344-2.124.858.858,0,0,1,.765-.219A1.038,1.038,0,0,0,1245.481,1322.51Zm.543-4.937c-.645,0-1.176.675-1.249,1.545-.006-.063-.009-.127-.009-.192,0-.85.5-1.54,1.107-1.54a.951.951,0,0,1,.731.384A.983.983,0,0,0,1246.024,1317.574Zm3.034-7.028a.952.952,0,0,1,.731.384.983.983,0,0,0-.58-.2c-.645,0-1.176.675-1.249,1.545-.006-.063-.009-.127-.009-.192C1247.951,1311.235,1248.447,1310.546,1249.058,1310.546Zm-.424,13.342a2.093,2.093,0,0,1-1.238,1.067,2.673,2.673,0,0,0,.868-.968,4.243,4.243,0,0,0-.224-4.322,2.195,2.195,0,0,1,.214.2A3.666,3.666,0,0,1,1248.634,1323.888Zm.534-9.884c-1.2,0-2.193,1.258-2.329,2.88-.01-.117-.016-.236-.016-.358,0-1.585.924-2.87,2.064-2.87a1.774,1.774,0,0,1,1.362.715A1.833,1.833,0,0,0,1249.168,1314Zm.435,4.615a1.031,1.031,0,0,0,.568-.256,2.158,2.158,0,0,0,.479-2.227,1.725,1.725,0,0,1,.08.157,1.919,1.919,0,0,1-.36,2.119A.854.854,0,0,1,1249.6,1318.618Z" fill="url(#linear-gradient)"/>
    </g>
  </g>
</svg>
