<svg xmlns="http://www.w3.org/2000/svg" xmlns:xlink="http://www.w3.org/1999/xlink" width="435.999" height="140" viewBox="0 0 435.999 140">
  <defs>
    <filter id="Subtraction_2" x="0" y="0" width="435.999" height="140" filterUnits="userSpaceOnUse">
      <feOffset dy="-10" input="SourceAlpha"/>
      <feGaussianBlur stdDeviation="10" result="blur"/>
      <feFlood flood-color="#fff" flood-opacity="0.161"/>
      <feComposite operator="in" in2="blur"/>
      <feComposite in="SourceGraphic"/>
    </filter>
    <linearGradient id="linear-gradient" x1="0.094" y1="0.219" x2="0.734" y2="0.828" gradientUnits="objectBoundingBox">
      <stop offset="0" stop-color="#0c67bc"/>
      <stop offset="0.488" stop-color="#1061f0"/>
      <stop offset="1" stop-color="#005eff"/>
    </linearGradient>
    <filter id="Ellipse_1" x="171.5" y="1.5" width="94" height="94" filterUnits="userSpaceOnUse">
      <feOffset dy="10" input="SourceAlpha"/>
      <feGaussianBlur stdDeviation="5" result="blur-2"/>
      <feFlood flood-color="#005dff" flood-opacity="0.412"/>
      <feComposite operator="in" in2="blur-2"/>
      <feComposite in="SourceGraphic"/>
    </filter>
  </defs>
  <g id="Group_161850" data-name="Group 161850" transform="translate(30.5 -692.5)">
    <g transform="matrix(1, 0, 0, 1, -30.5, 692.5)" filter="url(#Subtraction_2)">
      <path id="Subtraction_2-2" data-name="Subtraction 2" d="M375,79H0V0H131.771a6.464,6.464,0,0,0,1.878.248l.181,0c.126,0,.253,0,.377,0,9.853,0,14.656,7.5,16.264,10.718C156.249,30.246,171.33,43.2,188,43.2c16.408,0,30.976-12.133,37.112-30.911l.03.052,0-.009a21.62,21.62,0,0,1,3.747-6.042,18.17,18.17,0,0,1,5.216-4.159A16.894,16.894,0,0,1,242.022.243c.126,0,.25,0,.377,0l.182,0A6.458,6.458,0,0,0,244.459,0H375V79h0Z" transform="translate(30.5 40.5)" fill="#f3f8ff" stroke="rgba(0,0,0,0)" stroke-width="1"/>
    </g>
    <g id="Group_161849" data-name="Group 161849">
      <g id="Group_161730" data-name="Group 161730" transform="translate(156.001 699)">
        <g transform="matrix(1, 0, 0, 1, -186.5, -6.5)" filter="url(#Ellipse_1)">
          <circle id="Ellipse_1-2" data-name="Ellipse 1" cx="32" cy="32" r="32" transform="translate(186.5 6.5)" fill="url(#linear-gradient)"/>
        </g>
      </g>
      <g id="Group_161731" data-name="Group 161731">
        <text id="خانه" transform="translate(200 748)" fill="#f5f7fa" font-size="14" font-family="Shabnam-FD, Shabnam FD"><tspan x="-24" y="0">خانه</tspan></text>
        <g id="Group_20880" data-name="Group 20880" transform="translate(176 707)">
          <rect id="Rectangle_6130" data-name="Rectangle 6130" width="24" height="24" fill="#2d3ddf" opacity="0"/>
          <path id="Path_82760" data-name="Path 82760" d="M19.2,8.41h0L13.8,3.676a2.7,2.7,0,0,0-3.6,0L4.8,8.41a2.7,2.7,0,0,0-.9,2.035v7.867a2.7,2.7,0,0,0,2.7,2.7H17.4a2.7,2.7,0,0,0,2.7-2.7V10.436A2.7,2.7,0,0,0,19.2,8.41Zm-5.4,10.8H10.2v-4.5a.9.9,0,0,1,.9-.9h1.8a.9.9,0,0,1,.9.9Zm4.5-.9a.9.9,0,0,1-.9.9H15.6v-4.5a2.7,2.7,0,0,0-2.7-2.7H11.1a2.7,2.7,0,0,0-2.7,2.7v4.5H6.6a.9.9,0,0,1-.9-.9V10.436a.905.905,0,0,1,.306-.676l5.4-4.725a.9.9,0,0,1,1.188,0L18,9.76a.9.9,0,0,1,.306.676Z" transform="translate(0)" fill="#f5f7fa"/>
        </g>
      </g>
    </g>
  </g>
</svg>
