<svg xmlns="http://www.w3.org/2000/svg" width="24" height="24" viewBox="0 0 24 24">
  <g id="Group_161822" data-name="Group 161822" transform="translate(-311 -325)">
    <rect id="Rectangle_16986" data-name="Rectangle 16986" width="24" height="24" transform="translate(311 325)" fill="none"/>
    <path id="lock" d="M17,9V7A5,5,0,0,0,7,7V9a3,3,0,0,0-3,3v7a3,3,0,0,0,3,3H17a3,3,0,0,0,3-3V12A3,3,0,0,0,17,9ZM9,7a3,3,0,0,1,6,0V9H9Zm9,12a1,1,0,0,1-1,1H7a1,1,0,0,1-1-1V12a1,1,0,0,1,1-1H17a1,1,0,0,1,1,1Z" transform="translate(311 325)" fill="#043957"/>
  </g>
</svg>
