<svg id="Group_161851" data-name="Group 161851" xmlns="http://www.w3.org/2000/svg" width="24" height="24" viewBox="0 0 24 24">
  <rect id="Rectangle_6136" data-name="Rectangle 6136" width="24" height="24" opacity="0"/>
  <path id="Path_82766" data-name="Path 82766" d="M14.515,12.251a3.337,3.337,0,0,0,.895-2.238,3.384,3.384,0,1,0-6.767,0,3.347,3.347,0,0,0,.9,2.238,5.318,5.318,0,0,0-2.909,4.126.9.9,0,1,0,1.79.2,3.581,3.581,0,0,1,7.108,0,.9.9,0,0,0,.949.8h.1a.9.9,0,0,0,.788-.985A5.317,5.317,0,0,0,14.515,12.251ZM12,11.606a1.593,1.593,0,1,1,1.593-1.593h0A1.593,1.593,0,0,1,12,11.606Zm6.266-8.557H5.734A2.685,2.685,0,0,0,3.049,5.734V18.266a2.685,2.685,0,0,0,2.685,2.685H18.266a2.685,2.685,0,0,0,2.685-2.685V5.734A2.685,2.685,0,0,0,18.266,3.049Zm.895,15.217a.9.9,0,0,1-.895.895H5.734a.9.9,0,0,1-.895-.895V5.734a.9.9,0,0,1,.895-.895H18.266a.9.9,0,0,1,.895.895Z" transform="translate(0)" fill="#043957"/>
</svg>
