<svg xmlns="http://www.w3.org/2000/svg" width="41" height="41" viewBox="0 0 41 41">
  <g id="Group_161854" data-name="Group 161854" transform="translate(-1761.618 -1649)">
    <rect id="Rectangle_16994" data-name="Rectangle 16994" width="41" height="41" transform="translate(1761.618 1649)" fill="none"/>
    <path id="newspaper" d="M24.579,15.042H23.074a1.505,1.505,0,1,0,0,3.011h1.505a1.505,1.505,0,1,0,0-3.011Zm0,6.021H23.074a1.505,1.505,0,1,0,0,3.011h1.505a1.505,1.505,0,1,0,0-3.011Zm-9.032-9.032h9.032a1.505,1.505,0,1,0,0-3.011H15.548a1.505,1.505,0,1,0,0,3.011ZM30.6,3H9.526A1.505,1.505,0,0,0,8.021,4.505V9.021H3.505A1.505,1.505,0,0,0,2,10.526V25.579A4.516,4.516,0,0,0,6.516,30.1H26.084a6.021,6.021,0,0,0,6.021-6.021V4.505A1.505,1.505,0,0,0,30.6,3ZM8.021,25.579a1.505,1.505,0,0,1-3.011,0V12.032H8.021ZM29.1,24.074a3.011,3.011,0,0,1-3.011,3.011H10.761a4.516,4.516,0,0,0,.271-1.505V6.011H29.1ZM15.548,18.053h1.505a1.505,1.505,0,1,0,0-3.011H15.548a1.505,1.505,0,1,0,0,3.011Zm0,6.021h1.505a1.505,1.505,0,1,0,0-3.011H15.548a1.505,1.505,0,1,0,0,3.011Z" transform="translate(1765.438 1652.765)" fill="#0f73d6"/>
  </g>
</svg>
