<svg xmlns="http://www.w3.org/2000/svg" xmlns:xlink="http://www.w3.org/1999/xlink" width="41.642" height="39.227" viewBox="0 0 41.642 39.227">
  <defs>
    <linearGradient id="linear-gradient" x1="0.5" x2="0.5" y2="1" gradientUnits="objectBoundingBox">
      <stop offset="0" stop-color="#5087e5"/>
      <stop offset="1" stop-color="#2d4ab1"/>
    </linearGradient>
  </defs>
  <g id="Group_161780" data-name="Group 161780" transform="translate(-1290.09 -6.002)">
    <path id="Path_83234" data-name="Path 83234" d="M1326.8,29.294l.229,2.04.06.535h0l0,.015a.484.484,0,0,0,.481.43h20.988a.505.505,0,0,0,.5-.448l.289-2.572c.011-.1.017-.19.02-.285,0,0,0-.009,0-.013a3.188,3.188,0,0,0-1.452-2.918l-1.4-.776.892-.379a.884.884,0,0,0,.475-.829.9.9,0,0,0-.789-.985h-.9a.7.7,0,0,0-.413.138l-.274.2-.932-3.16a2.223,2.223,0,0,0-2.011-1.751h-8.988a2.223,2.223,0,0,0-2.011,1.751l-.927,3.141-.248-.179a.7.7,0,0,0-.413-.138h-.9a.9.9,0,0,0-.789.985.884.884,0,0,0,.475.829l.875.372-1.418.784A3.189,3.189,0,0,0,1326.784,29v.013C1326.788,29.1,1326.794,29.2,1326.8,29.294Zm19.618-2.826a2.016,2.016,0,1,1-2.016,2.016A2.016,2.016,0,0,1,1346.422,26.468ZM1332.916,21.1a1.267,1.267,0,0,1,1.144-.967h8.193a1.268,1.268,0,0,1,1.145.969l1.379,4.323H1331.53Zm-3.111,5.369a2.016,2.016,0,1,1-2.016,2.016A2.016,2.016,0,0,1,1329.8,26.468Z" transform="translate(-27.024 -9.229)" fill="url(#linear-gradient)"/>
    <path id="Path_83235" data-name="Path 83235" d="M1389.794,75.063h1.752a1.132,1.132,0,0,0,1.129-1.129V72.379h-4.01v1.555A1.132,1.132,0,0,0,1389.794,75.063Z" transform="translate(-72.602 -48.888)" fill="url(#linear-gradient)"/>
    <path id="Path_83236" data-name="Path 83236" d="M1400.625,44.435V41.8h-2.741V6h-3.1V26.888h-9.337a.555.555,0,0,0-.218,1.064l9.554,4.086V41.8h-2.618v2.631h-.927v.794h10.318v-.794Z" transform="translate(-69.821 0)" fill="url(#linear-gradient)"/>
    <path id="Path_83237" data-name="Path 83237" d="M1306.361,26.888h-9.622V6h-3.1V41.8h-2.618v2.631h-.927v.794h10.318v-.794h-.927V41.8h-2.741V32.16l9.84-4.208a.555.555,0,0,0-.218-1.064Z" transform="translate(0 0)" fill="url(#linear-gradient)"/>
    <path id="Path_83238" data-name="Path 83238" d="M1334.336,75.063h1.752a1.133,1.133,0,0,0,1.129-1.129V72.379h-4.01v1.555A1.132,1.132,0,0,0,1334.336,75.063Z" transform="translate(-31.756 -48.888)" fill="url(#linear-gradient)"/>
  </g>
</svg>
