<svg xmlns="http://www.w3.org/2000/svg" xmlns:xlink="http://www.w3.org/1999/xlink" width="48.404" height="41.767" viewBox="0 0 48.404 41.767">
  <defs>
    <linearGradient id="linear-gradient" x1="0.5" x2="0.5" y2="1" gradientUnits="objectBoundingBox">
      <stop offset="0" stop-color="#5087e5"/>
      <stop offset="1" stop-color="#2d4ab1"/>
    </linearGradient>
    <linearGradient id="linear-gradient-2" x1="0.5" x2="0.5" y2="1" gradientUnits="objectBoundingBox">
      <stop offset="0" stop-color="#4e84e3"/>
      <stop offset="1" stop-color="#2f4db4"/>
    </linearGradient>
  </defs>
  <g id="Group_161794" data-name="Group 161794" transform="translate(-3012.248 -1586.733)">
    <path id="Subtraction_3" data-name="Subtraction 3" d="M7.866,29H4.853a1.942,1.942,0,0,1-1.94-1.94V24.391H9.808v2.673A1.943,1.943,0,0,1,7.866,29ZM20.1,23.7H1.369a.832.832,0,0,1-.827-.74L.041,18.5A6.335,6.335,0,0,1,.53,15.222,4.681,4.681,0,0,1,2.5,12.973l2.437-1.346-1.5-.64a1.519,1.519,0,0,1-.816-1.425A1.556,1.556,0,0,1,3.974,7.867H5.514a1.211,1.211,0,0,1,.71.237l.426.308,1.593-5.4A3.834,3.834,0,0,1,11.7,0h8.4V2.75H12.514a2.168,2.168,0,0,0-1.967,1.662L8.166,11.847H20.1V23.694ZM5.2,13.644a3.466,3.466,0,1,0,3.466,3.465A3.47,3.47,0,0,0,5.2,13.644Z" transform="translate(3012.75 1596.18)" stroke="rgba(0,0,0,0)" stroke-width="1" fill="url(#linear-gradient)"/>
    <path id="Path_83265" data-name="Path 83265" d="M1565.816,233.991l-1.523-1.021,1.523,2.258s1.9-3.1,4.212-3.57A4.352,4.352,0,0,0,1565.816,233.991Zm2.869,14.972a2.815,2.815,0,0,1-.128,2.313,2.757,2.757,0,0,1-2.445,1.476,3.348,3.348,0,0,1-1.909-.649.832.832,0,0,1-.2-.2,3.007,3.007,0,0,1-.339-3.181,2.755,2.755,0,0,1,2.451-1.489,3.245,3.245,0,0,1,1.756.554c.156-.064.325-.128.507-.19a1.455,1.455,0,0,0-.137-.114,3.779,3.779,0,0,0-2.126-.7,3.2,3.2,0,0,0-2.851,1.732,3.444,3.444,0,0,0,.37,3.648,1.282,1.282,0,0,0,.313.314,3.794,3.794,0,0,0,2.168.73,3.207,3.207,0,0,0,2.844-1.716,3.271,3.271,0,0,0,.106-2.8A3.327,3.327,0,0,0,1568.685,248.963Zm-2.869,1.292-1.523-1.022,1.523,2.258s1.9-3.1,4.212-3.57A4.353,4.353,0,0,0,1565.816,250.255Zm-1.872-14.046a3.794,3.794,0,0,0,2.168.73,3.207,3.207,0,0,0,2.844-1.716,3.27,3.27,0,0,0,.106-2.8,3.327,3.327,0,0,0-.376.276,2.815,2.815,0,0,1-.128,2.313,2.757,2.757,0,0,1-2.445,1.475,3.348,3.348,0,0,1-1.909-.648.832.832,0,0,1-.2-.2,3.007,3.007,0,0,1-.339-3.181,2.755,2.755,0,0,1,2.451-1.489,3.245,3.245,0,0,1,1.756.554c.156-.064.325-.128.507-.19a1.458,1.458,0,0,0-.137-.114,3.779,3.779,0,0,0-2.126-.7,3.2,3.2,0,0,0-2.851,1.732,3.444,3.444,0,0,0,.37,3.648A1.282,1.282,0,0,0,1563.944,236.208Zm0,7.621a3.793,3.793,0,0,0,2.168.73,3.207,3.207,0,0,0,2.844-1.716,3.27,3.27,0,0,0,.106-2.8,3.328,3.328,0,0,0-.376.276,2.816,2.816,0,0,1-.128,2.313,2.757,2.757,0,0,1-2.445,1.475,3.347,3.347,0,0,1-1.909-.649.831.831,0,0,1-.2-.2,3.007,3.007,0,0,1-.339-3.181,2.755,2.755,0,0,1,2.451-1.489,3.245,3.245,0,0,1,1.756.554c.156-.064.325-.128.507-.19a1.491,1.491,0,0,0-.137-.113,3.778,3.778,0,0,0-2.126-.7,3.2,3.2,0,0,0-2.851,1.732,3.444,3.444,0,0,0,.37,3.649A1.276,1.276,0,0,0,1563.944,243.829Zm1.872-2.217-1.523-1.021,1.523,2.257s1.9-3.1,4.212-3.57A4.352,4.352,0,0,0,1565.816,241.612Zm5.511-7.939a.24.24,0,0,0,.239.239H1581a.239.239,0,0,0,0-.479h-9.436A.24.24,0,0,0,1571.326,233.673Zm11.681-9.97h-5.187l.214-.668a.467.467,0,0,0-.445-.61h-3.939c0-.042.006-.083.006-.125a2.585,2.585,0,1,0-5.17,0c0,.042,0,.084.006.125h-3.939a.467.467,0,0,0-.413.687l.314.591h-3.974a2.64,2.64,0,0,0-2.64,2.64v32.5a2.64,2.64,0,0,0,2.64,2.64h22.526a2.64,2.64,0,0,0,2.64-2.64v-32.5A2.64,2.64,0,0,0,1583.007,223.7Zm-11.936-2.683a1.28,1.28,0,1,1-1.28,1.28A1.28,1.28,0,0,1,1571.071,221.019Zm12.237,36h-23.129V225.759h5.369l.674,1.267a.468.468,0,0,0,.413.248h9.7a.468.468,0,0,0,.445-.325l.382-1.191h6.148ZM1581,234.748h-9.436a.239.239,0,0,0,0,.479H1581a.239.239,0,0,0,0-.479Zm0,6.12h-9.436a.239.239,0,0,0,0,.479H1581a.239.239,0,0,0,0-.479Zm0,9.576h-9.436a.239.239,0,0,0,0,.479H1581a.239.239,0,0,0,0-.479Zm0-8.261h-9.436a.239.239,0,0,0,0,.479H1581a.239.239,0,0,0,0-.479Zm0,9.576h-9.436a.239.239,0,0,0,0,.479H1581a.239.239,0,0,0,0-.479Z" transform="translate(1475.004 1367.019)" fill="url(#linear-gradient-2)"/>
  </g>
</svg>
