<svg xmlns="http://www.w3.org/2000/svg" width="42" height="42" viewBox="0 0 42 42">
  <g id="Group_161853" data-name="Group 161853" transform="translate(-1738 -1607)">
    <rect id="Rectangle_16993" data-name="Rectangle 16993" width="42" height="42" transform="translate(1738 1607)" fill="none"/>
    <path id="megaphone" d="M28.2,2a1.482,1.482,0,0,0-1.483,1.483v.944A13.4,13.4,0,0,1,16.335,9.415h-8.9a4.453,4.453,0,0,0-4.448,4.448v2.965a4.453,4.453,0,0,0,4.448,4.448h.717L4.594,29.589a1.482,1.482,0,0,0,1.362,2.066h5.931a1.481,1.481,0,0,0,1.362-.9l4.038-9.423a13.385,13.385,0,0,1,9.426,4.93v.944a1.483,1.483,0,0,0,2.965,0V3.485A1.482,1.482,0,0,0,28.2,2ZM7.439,18.311a1.484,1.484,0,0,1-1.483-1.483V13.863A1.484,1.484,0,0,1,7.439,12.38H8.922v5.931ZM10.91,28.69h-2.7l3.177-7.413h2.7Zm15.8-6.64a16.386,16.386,0,0,0-10.378-3.739H11.887V12.38h4.448a16.387,16.387,0,0,0,10.378-3.74Z" transform="translate(1742.009 1610.248)" fill="#0f73d6"/>
  </g>
</svg>
