<svg id="Layer_2" data-name="Layer 2" xmlns="http://www.w3.org/2000/svg" width="24" height="24" viewBox="0 0 24 24">
  <g id="Layer_5" data-name="Layer 5">
    <rect id="Rectangle_1478" data-name="Rectangle 1478" width="24" height="24" fill="none"/>
    <path id="Path_8064" data-name="Path 8064" d="M20.11,8.74a2,2,0,0,0-.41-.2,7.75,7.75,0,0,0-15.4,0A2,2,0,0,0,3,10.41v5.5a2,2,0,0,0,4,0v-5.5a2,2,0,0,0-.89-1.67,1.43,1.43,0,0,0-.3-.16,6.24,6.24,0,0,1,12.38,0,1.9,1.9,0,0,0-.39.23A2,2,0,0,0,17,10.4v5.5a2,2,0,0,0,1.25,1.85,3.22,3.22,0,0,1-2.94,1.9h-.2a1.56,1.56,0,0,0-1.39-.84H11.14a1.56,1.56,0,0,0-1.39.84.8.8,0,0,0-.08.16,1.51,1.51,0,0,0,0,1.18.8.8,0,0,0,.08.16,1.56,1.56,0,0,0,1.39.84h2.58a1.56,1.56,0,0,0,1.39-.84h.2a4.75,4.75,0,0,0,4.57-3.47A2,2,0,0,0,21,15.91v-5.5A2,2,0,0,0,20.11,8.74ZM5.5,15.91a.5.5,0,0,1-.35.47.28.28,0,0,1-.15,0,.51.51,0,0,1-.2,0,.5.5,0,0,1-.3-.46v-5.5a.49.49,0,0,1,.4-.48H5a.51.51,0,0,1,.25.06.55.55,0,0,1,.25.44Zm13-5.5a.49.49,0,0,1,.4-.48H19a.51.51,0,0,1,.25.06.55.55,0,0,1,.25.44v5.5a.5.5,0,0,1-.35.47.28.28,0,0,1-.15,0,.51.51,0,0,1-.2,0,.48.48,0,0,1-.24-.23.44.44,0,0,1-.06-.23Z" transform="translate(0 0)" fill="#043957"/>
  </g>
</svg>
